<svg version="1" xmlns="http://www.w3.org/2000/svg" width="682.667" height="682.667" viewBox="0 0 512.000000 512.000000"><path d="M246.7 1.8c-6.1 1.9-13.8 8.8-16.5 14.6-6.3 13.3-1.6 29.4 10.7 36.7 3.1 1.8 5.8 3.4 6 3.6.9.6.6 17.6-.4 17.9-.5.2-14.5.5-31 .7-32.8.4-36.1.9-48.2 6.9-10.5 5.1-20.8 16.9-24.4 27.7-1.4 4.1-1.8 4.5-6.7 5.7-7.4 1.9-14 5.5-20.2 11.1-13.6 12.2-18.5 28.5-14.7 48.3.7 4 6.9 15 10.8 19.4 5.4 6.1 14.1 11.9 20.6 13.6 6.2 1.7 6.8 2.2 7.1 6.2.5 5.8 3.3 15.1 6.3 20.8 8.1 15.2 23.2 24.7 42.4 26.8 13.4 1.4 137.1.8 143-.8 10.2-2.6 19-7.5 25.4-14 8.4-8.5 12.3-17.2 15.7-34.6.2-1.5 1.4-2.3 3.6-2.8 6.1-1.2 16.1-7.1 21.7-12.7 13.5-13.5 17.7-31.4 11.6-49.4-5.3-15.9-17.8-27.4-34.2-31.5-4.1-1.1-5.3-1.8-5.8-3.8-3.3-13-14.7-25.9-28-31.5-10.8-4.5-15.5-4.9-51-5l-25-.1-.5-6.5c-.8-10.4-.3-12.8 3-14 4.3-1.5 11.5-8.6 14.1-13.9 3.1-6.4 3.1-17.7.1-24.2C276 3.8 260.6-2.8 246.7 1.8z"/><path d="M86.3 246.9c-9.5 3.3-16.5 9.4-20.9 18.6-1.4 3-1.9 6.2-1.9 13 0 7.6.4 9.8 2.6 14.5 3.2 6.8 9.7 13.2 16.5 16.2l5.2 2.3-.1 32.2V376l-5.1 2.3c-8.9 4.1-16.1 12.6-18.6 21.9-1.8 6.6-1.5 25.4.5 28.4 3.2 5 10.1 5.1 13.7.3 1.5-2 1.9-4.6 2.1-13.9.3-13 1.3-15.8 7.5-20 4.8-3.3 12.7-3.3 17.7.1 5.5 3.8 7.2 8.6 7.3 20.7 0 7.8.4 10.9 1.7 12.8 3.3 5.1 9.8 5.3 13.6.5 1.9-2.4 2.1-3.7 1.7-15.6-.3-11.5-.6-13.6-3-18.6-3.4-7.4-9.2-13.3-16.2-16.5l-5.6-2.5v-64.6l4.5-1.7c6.1-2.4 13.7-9.5 16.6-15.5 1.3-2.8 2.6-5.1 2.9-5.1 1.6.1 13.2 2.8 13.5 3.2.3.2.5 26.7.5 58.9.2 64.6.3 66.9 6.8 85.9 12.9 38.2 46.9 66.6 88.2 73.6 7 1.2 28.2 1.1 35.5-.2 36.4-6.3 67-28.8 83-61 2.5-5 4.5-9.8 4.5-10.6 0-.8.4-1.8 1-2.4 1.1-1.1 3.8-11.2 5.5-20.9.9-5 1.3-23.4 1.4-64.9.1-31.9.3-58.2.6-58.4.4-.4 6-1.7 11.2-2.6 2.9-.6 3.2-.3 4.4 3.1 1.6 5 11.2 14.4 17.1 16.8l4.6 2v64.6l-2.6 1c-10.5 3.8-19.4 14-21.7 24.8-.4 1.8-.7 8-.8 13.6 0 8.2.3 10.9 1.7 13 3.3 5 10.2 5.3 13.8.4 1.4-1.9 1.8-4.6 1.9-13.1.1-8.3.6-11.6 2-14.5 5.8-11.7 22.8-11.7 28.7-.1 1.5 2.9 1.9 6.1 2 14.3.1 5.7.6 11.4 1.2 12.5 3 5.7 12.6 5.7 15 .1.8-1.9 1.1-7.2.8-15.3-.3-11.6-.5-12.8-3.6-19.1-3.6-7.3-8.9-12.3-16.4-15.7l-4.6-2 .1-32.2.2-32.1 5.9-3.1c7.3-3.9 11.9-8.6 15.4-15.6 2.3-4.7 2.7-6.8 2.7-14 0-7.1-.4-9.4-2.6-14-3.2-6.7-8.5-12.2-14.8-15.4-4.6-2.4-14.1-4.7-17.1-4.1-7.8 1.3-9.9 1.9-13.2 3.6-7.8 4-15.5 13-17.3 20.2-.5 1.7-1.4 2.7-2.6 2.7-1 0-2.1.1-2.4.1-.2.1-4.2 1-8.7 2-7.7 1.7-15.6 1.8-115.3 1.6-58.8-.1-107.9-.5-109-.8-1.1-.4-4-1-6.5-1.5-2.5-.4-4.8-.9-5.2-1-.5-.1-1.5-.2-2.3-.3-.8 0-2.8-3-4.4-6.5-7.3-16.1-24.9-24.2-40.8-18.7z"/></svg>